<?xml version="1.0" encoding="UTF-8" ?>
<!DOCTYPE svg PUBLIC "-//W3C//DTD SVG 1.1//EN" "http://www.w3.org/Graphics/SVG/1.1/DTD/svg11.dtd">
<svg width="522pt" height="522pt" viewBox="0 0 522 522" version="1.1" xmlns="http://www.w3.org/2000/svg">
<g id="#ffffff">
<path fill="#ffffff" opacity="1.00" d=" M 123.58 22.54 C 175.99 -1.21 238.81 -0.59 290.71 24.29 C 334.61 44.44 370.10 81.68 389.10 125.98 C 408.47 170.79 410.51 222.74 394.88 268.98 C 389.61 284.63 382.49 299.71 373.42 313.52 C 387.65 327.97 402.34 341.95 416.48 356.49 C 429.94 370.73 444.55 383.78 458.24 397.79 C 477.69 416.95 496.65 436.58 515.93 455.90 C 500.61 469.94 486.70 485.37 471.86 499.90 C 466.39 505.19 461.26 510.82 455.81 516.13 C 429.92 490.37 404.03 464.60 378.26 438.71 C 356.62 417.00 334.73 395.53 313.49 373.43 C 270.45 401.55 216.20 411.61 165.86 401.42 C 112.74 391.18 64.42 358.04 35.91 312.05 C 11.24 273.12 0.80 225.47 6.84 179.80 C 10.72 147.45 23.10 116.35 41.68 89.66 C 62.26 60.44 90.83 36.87 123.58 22.54 M 188.57 56.80 C 153.33 60.67 119.64 77.51 95.71 103.70 C 68.12 132.97 53.60 173.95 56.20 214.06 C 58.37 257.26 80.68 298.92 115.44 324.66 C 147.07 348.88 188.80 359.10 228.09 352.85 C 267.50 347.15 304.00 324.49 326.93 291.98 C 352.39 256.81 360.94 210.11 349.93 168.14 C 339.21 124.52 307.26 86.85 266.15 68.84 C 242.00 57.95 214.88 53.92 188.57 56.80 Z" />
</g>
</svg>
